<svg width="14" height="14" viewBox="0 0 14 14" fill="none" xmlns="http://www.w3.org/2000/svg">
<path d="M3.5 1.16675L1.75 3.50008V11.6667C1.75 11.9762 1.87292 12.2729 2.09171 12.4917C2.3105 12.7105 2.60725 12.8334 2.91667 12.8334H11.0833C11.3928 12.8334 11.6895 12.7105 11.9083 12.4917C12.1271 12.2729 12.25 11.9762 12.25 11.6667V3.50008L10.5 1.16675H3.5Z" stroke="white" stroke-linecap="round" stroke-linejoin="round"/>
<path d="M1.75 3.5H12.25" stroke="white" stroke-linecap="round" stroke-linejoin="round"/>
<path d="M9.33268 5.83325C9.33268 6.45209 9.08685 7.04558 8.64926 7.48317C8.21168 7.92075 7.61819 8.16659 6.99935 8.16659C6.38051 8.16659 5.78702 7.92075 5.34943 7.48317C4.91185 7.04558 4.66602 6.45209 4.66602 5.83325" stroke="white" stroke-linecap="round" stroke-linejoin="round"/>
</svg>
